# Wavefront OBJ exported by MilkShape 3D

v 119.042099 15.854698 -55.311203
v -104.366898 15.854698 -55.311203
v -104.366898 15.854698 122.773407
v 119.042099 15.854698 122.773407
v 119.042099 15.854698 -132.347900
v -104.366898 15.854698 -132.347900
v 204.717194 15.854698 122.773407
v 204.717194 15.854698 -55.311203
v -104.366898 -0.375299 122.773407
v 119.042099 -0.375299 122.773407
v 204.717194 -0.375299 122.773407
v 204.717194 -0.375299 -55.311203
v 119.042099 -0.375299 -55.311203
v 119.042099 -0.375299 -132.347900
v -104.366898 -0.375299 -132.347900
v -104.366898 -0.375299 -55.311203
v 78.111496 32.701401 -66.785904
v -70.136200 32.701401 -66.785904
v -70.136200 32.701401 104.763397
v 78.111496 32.701401 104.763397
v -70.136200 10.526699 104.763397
v 78.111496 10.526699 104.763397
v 78.111496 10.526699 -66.785904
v -70.136200 10.526699 -66.785904
v -96.757507 11.145399 -80.793503
v -148.262695 11.145399 -80.793503
v -148.262695 11.145399 63.416603
v -96.757507 11.145399 63.416603
v -148.262695 -0.375299 63.416603
v -96.757507 -0.375299 63.416603
v -96.757507 -0.375299 -80.793503
v -148.262695 -0.375299 -80.793503
v 119.042099 -16.605301 -55.311203
v 119.042099 -16.605301 122.773407
v -104.366898 -16.605301 122.773407
v -104.366898 -16.605301 -55.311203
v 119.042099 -16.605301 -132.347900
v -104.366898 -16.605301 -132.347900
v 204.717194 -16.605301 122.773407
v 204.717194 -16.605301 -55.311203
v 78.111496 -33.452000 -66.785904
v 78.111496 -33.452000 104.763397
v -70.136200 -33.452000 104.763397
v -70.136200 -33.452000 -66.785904
v 78.111496 -11.277300 104.763397
v -70.136200 -11.277300 104.763397
v 78.111496 -11.277300 -66.785904
v -70.136200 -11.277300 -66.785904
v -96.757507 -11.896000 -80.793503
v -96.757507 -11.896000 63.416603
v -148.262695 -11.896000 63.416603
v -148.262695 -11.896000 -80.793503
v -123.772003 27.725601 -110.790985
v -196.704712 27.725601 -110.790985
v -196.704712 27.725601 93.414101
v -123.772003 27.725601 93.414101
v -196.704712 -0.375299 93.414101
v -123.772003 -0.375299 93.414101
v -123.772003 -0.375299 -110.790985
v -196.704712 -0.375299 -110.790985
v -123.772003 -28.476200 -110.790985
v -123.772003 -28.476200 93.414101
v -196.704712 -28.476200 93.414101
v -196.704712 -28.476200 -110.790985
# 64 vertices

vt 0.236200 0.619900
vt 0.652500 0.619900
vt 0.652500 0.951800
vt 0.236200 0.951800
vt 0.236200 0.476400
vt 0.652500 0.476400
vt 0.076500 0.951800
vt 0.076500 0.619900
vt 0.652500 0.982000
vt 0.236200 0.982000
vt 0.046300 0.951800
vt 0.046300 0.619900
vt 0.205900 0.619900
vt 0.205900 0.476400
vt 0.236200 0.446100
vt 0.652500 0.446100
vt 0.682800 0.476400
vt 0.682800 0.619900
vt 0.682800 0.951800
vt 0.187700 0.553000
vt 0.187700 0.583200
vt 0.028000 0.583200
vt 0.028000 0.553000
vt 0.378900 0.093400
vt 0.378900 0.354000
vt 0.077400 0.354000
vt 0.077400 0.093400
vt 0.038400 0.354000
vt 0.038400 0.093400
vt 0.077400 0.054500
vt 0.378900 0.054500
vt 0.417900 0.093400
vt 0.417900 0.354000
vt 0.378900 0.393000
vt 0.077400 0.393000
vt 0.899400 0.881000
vt 0.764300 0.881000
vt 0.764300 0.502700
vt 0.899400 0.502700
vt 0.076500 0.982000
vt 0.764300 0.472500
vt 0.899400 0.472500
vt 0.929700 0.502700
vt 0.929700 0.881000
vt 0.899400 0.911200
vt 0.764300 0.911200
vt 0.734100 0.881000
vt 0.734100 0.502700
vt 0.947800 0.113400
vt 0.947800 0.278100
vt 0.486500 0.278100
vt 0.486500 0.113400
vt 0.449500 0.278100
vt 0.449500 0.113400
vt 0.486500 0.076400
vt 0.947800 0.076400
vt 0.984800 0.113400
vt 0.984800 0.278100
vt 0.947800 0.315100
vt 0.486500 0.315100
# 60 texture coordinates

vn 0.000000 1.000000 0.000000
vn 0.000000 0.894427 0.447214
vn 0.000000 0.707107 0.707107
vn 0.000000 0.000000 1.000000
vn 1.000000 0.000000 0.000000
vn 0.000000 0.000000 -1.000000
vn -1.000000 0.000000 0.000000
vn 0.000000 -1.000000 0.000000
vn 0.000000 -0.894427 0.447214
vn 0.000000 -0.707107 0.707107
# 10 normals

g Box001
s 4
f 1/1/1 2/2/1 3/3/1
f 1/1/1 3/3/1 4/4/2
f 5/5/1 6/6/1 2/2/1
f 5/5/1 2/2/1 1/1/1
f 7/7/3 8/8/1 1/1/1
f 7/7/3 1/1/1 4/4/2
s 8
f 3/3/4 9/9/4 10/10/4
f 3/3/4 10/10/4 4/4/4
s 16
f 7/7/5 11/11/5 12/12/5
f 7/7/5 12/12/5 8/8/5
f 1/1/5 13/13/5 14/14/5
f 1/1/5 14/14/5 5/5/5
s 32
f 5/5/6 14/15/6 15/16/6
f 5/5/6 15/16/6 6/6/6
s 31
f 6/6/7 15/17/7 16/18/7
f 6/6/7 16/18/7 2/2/7
f 2/2/7 16/18/7 9/19/7
f 2/2/7 9/19/7 3/3/7
f 8/20/6 12/21/6 13/22/6
f 8/20/6 13/22/6 1/23/6
s 4
f 17/24/1 18/25/1 19/26/1
f 17/24/1 19/26/1 20/27/1
s 8
f 20/27/4 19/26/4 21/28/4
f 20/27/4 21/28/4 22/29/4
s 16
f 17/24/5 20/27/5 22/30/5
f 17/24/5 22/30/5 23/31/5
s 32
f 18/25/6 17/24/6 23/32/6
f 18/25/6 23/32/6 24/33/6
s 31
f 19/26/7 18/25/7 24/34/7
f 19/26/7 24/34/7 21/35/7
s 4
f 25/36/1 26/37/1 27/38/1
f 25/36/1 27/38/1 28/39/1
f 7/7/3 4/4/2 10/10/4
f 7/7/3 10/10/4 11/40/4
s 8
f 28/39/4 27/38/4 29/41/4
f 28/39/4 29/41/4 30/42/4
s 16
f 25/36/5 28/39/5 30/43/5
f 25/36/5 30/43/5 31/44/5
s 32
f 26/37/6 25/36/6 31/45/6
f 26/37/6 31/45/6 32/46/6
s 31
f 27/38/7 26/37/7 32/47/7
f 27/38/7 32/47/7 29/48/7
s 4
f 33/1/8 34/4/9 35/3/8
f 33/1/8 35/3/8 36/2/8
f 37/5/8 33/1/8 36/2/8
f 37/5/8 36/2/8 38/6/8
f 39/7/10 34/4/9 33/1/8
f 39/7/10 33/1/8 40/8/8
s 8
f 35/3/4 34/4/4 10/10/4
f 35/3/4 10/10/4 9/9/4
s 16
f 39/7/5 40/8/5 12/12/5
f 39/7/5 12/12/5 11/11/5
f 33/1/5 37/5/5 14/14/5
f 33/1/5 14/14/5 13/13/5
s 32
f 37/5/6 38/6/6 15/16/6
f 37/5/6 15/16/6 14/15/6
s 31
f 38/6/7 36/2/7 16/18/7
f 38/6/7 16/18/7 15/17/7
f 36/2/7 35/3/7 9/19/7
f 36/2/7 9/19/7 16/18/7
f 40/20/6 33/23/6 13/22/6
f 40/20/6 13/22/6 12/21/6
s 4
f 41/24/8 42/27/8 43/26/8
f 41/24/8 43/26/8 44/25/8
s 8
f 42/27/4 45/29/4 46/28/4
f 42/27/4 46/28/4 43/26/4
s 16
f 41/24/5 47/31/5 45/30/5
f 41/24/5 45/30/5 42/27/5
s 32
f 44/25/6 48/33/6 47/32/6
f 44/25/6 47/32/6 41/24/6
s 31
f 43/26/7 46/35/7 48/34/7
f 43/26/7 48/34/7 44/25/7
s 4
f 49/36/8 50/39/8 51/38/8
f 49/36/8 51/38/8 52/37/8
f 39/7/10 11/40/4 10/10/4
f 39/7/10 10/10/4 34/4/9
s 8
f 50/39/4 30/42/4 29/41/4
f 50/39/4 29/41/4 51/38/4
s 16
f 49/36/5 31/44/5 30/43/5
f 49/36/5 30/43/5 50/39/5
s 32
f 52/37/6 32/46/6 31/45/6
f 52/37/6 31/45/6 49/36/6
s 31
f 51/38/7 29/48/7 32/47/7
f 51/38/7 32/47/7 52/37/7
# 84 triangles in group

g Object001
s 4
f 53/49/1 54/50/1 55/51/1
f 53/49/1 55/51/1 56/52/1
s 8
f 56/52/4 55/51/4 57/53/4
f 56/52/4 57/53/4 58/54/4
s 16
f 53/49/5 56/52/5 58/55/5
f 53/49/5 58/55/5 59/56/5
s 32
f 54/50/6 53/49/6 59/57/6
f 54/50/6 59/57/6 60/58/6
s 31
f 55/51/7 54/50/7 60/59/7
f 55/51/7 60/59/7 57/60/7
s 4
f 61/49/8 62/52/8 63/51/8
f 61/49/8 63/51/8 64/50/8
s 8
f 62/52/4 58/54/4 57/53/4
f 62/52/4 57/53/4 63/51/4
s 16
f 61/49/5 59/56/5 58/55/5
f 61/49/5 58/55/5 62/52/5
s 32
f 64/50/6 60/58/6 59/57/6
f 64/50/6 59/57/6 61/49/6
s 31
f 63/51/7 57/60/7 60/59/7
f 63/51/7 60/59/7 64/50/7
# 20 triangles in group

# 104 triangles total

