# Wavefront OBJ exported by MilkShape 3D

v -1.103925 0.178792 2.883842
v -1.103926 1.558844 2.331408
v -1.103926 -1.268787 2.263881
v -1.103926 -1.821201 0.883838
v -1.103926 2.178793 0.883838
v -1.103926 1.626360 -0.496208
v -1.103926 -1.201247 -0.563740
v -1.103926 0.178792 -1.116166
v -1.103925 0.178792 2.883842
v -1.103926 1.558844 2.331408
v -1.103926 -1.268787 2.263881
v 0.344818 0.178792 2.148615
v 0.344818 1.051514 1.799272
v 0.344818 -0.736636 1.756566
v -1.103926 -1.821201 0.883838
v -1.103926 2.178793 0.883838
v -1.103926 2.178793 0.883838
v 0.344818 -1.085986 0.883837
v 0.344818 1.443579 0.883837
v 0.344818 1.443579 0.883837
v 1.310299 0.178792 0.883837
v 1.310299 0.178792 0.883837
v 1.310299 0.178792 0.883837
v 1.310299 0.178792 0.883837
v 1.310299 0.178792 0.883837
v 1.310299 0.178792 0.883837
v 1.310299 0.178792 0.883837
v 1.310299 0.178792 0.883837
v 0.344818 1.094226 0.011106
v 0.344818 -0.693935 -0.031599
v 0.344818 0.178792 -0.380941
v -1.103926 1.626360 -0.496208
v -1.103926 -1.201247 -0.563740
v -1.103926 0.178792 -1.116166
v -0.293674 -1.095535 1.099025
v -0.281029 -0.771818 0.538333
v -0.462576 -0.426954 -0.058989
v -0.811312 -0.129609 -0.574007
v -0.823959 -0.453321 -0.013314
v -0.642420 -0.798187 0.584008
v -0.293674 -1.095535 1.099025
v -0.293675 -18.416035 -8.900976
v -0.281029 -18.092327 -9.461670
v -0.462577 -17.747456 -10.058990
v -0.811312 -17.450115 -10.574008
v -0.823960 -17.773827 -10.013315
v -0.642420 -18.118694 -9.415993
v -0.293675 -18.416035 -8.900976
v -0.293675 -18.416035 -8.900976
v -0.281029 -18.092327 -9.461670
v -0.462577 -17.747456 -10.058990
v -0.811312 -17.450115 -10.574008
v -0.823960 -17.773827 -10.013315
v -0.642420 -18.118694 -9.415993
v -0.293674 1.002312 1.879842
v -0.281029 0.354882 1.879842
v -0.462576 -0.334848 1.879842
v -0.811312 -0.929536 1.879842
v -0.823959 -0.282100 1.879842
v -0.642420 0.407626 1.879842
v -0.293674 1.002312 1.879842
v -0.293672 1.002312 21.879843
v -0.281026 0.354882 21.879843
v -0.462573 -0.334848 21.879843
v -0.811309 -0.929536 21.879843
v -0.823957 -0.282100 21.879843
v -0.642417 0.407626 21.879843
v -0.293672 1.002312 21.879843
v -0.293672 1.002312 21.879843
v -0.281026 0.354882 21.879843
v -0.462573 -0.334848 21.879843
v -0.811309 -0.929536 21.879843
v -0.823957 -0.282100 21.879843
v -0.642417 0.407626 21.879843
v -0.293675 0.629599 -0.327355
v -0.281029 0.953316 0.233336
v -0.462576 1.298178 0.830660
v -0.811312 1.595523 1.345676
v -0.823959 1.271807 0.784984
v -0.642420 0.926942 0.187662
v -0.293675 0.629599 -0.327355
v -0.293676 9.289846 -5.327355
v -0.281030 9.613567 -4.766662
v -0.462577 9.958433 -4.169341
v -0.811313 10.255774 -3.654323
v -0.823960 9.932062 -4.215016
v -0.642421 9.587194 -4.812338
v -0.293676 9.289846 -5.327355
v -0.293677 17.950106 -10.327356
v -0.281031 18.273827 -9.766659
v -0.462578 18.618690 -9.169340
v -0.811314 18.916035 -8.654320
v -0.823962 18.592316 -9.215017
v -0.642422 18.247452 -9.812336
v -0.293677 17.950106 -10.327356
v -0.293677 17.950106 -10.327356
v -0.281031 18.273827 -9.766659
v -0.462578 18.618690 -9.169340
v -0.811314 18.916035 -8.654320
v -0.823962 18.592316 -9.215017
v -0.642422 18.247452 -9.812336
# 101 vertices

vt 0.755981 0.684413
vt 0.994738 0.684893
vt 0.792832 0.770942
vt 0.875172 0.804093
vt 0.961641 0.767222
vt 0.789135 0.602051
vt 0.957927 0.598399
vt 0.875631 0.565230
vt 0.940031 0.144094
vt 0.993392 0.126645
vt 0.994944 0.221593
vt 0.893116 0.180794
vt 0.972184 0.233464
vt 0.863033 0.228437
vt 0.954821 0.253028
vt 0.849795 0.286690
vt 0.944385 0.277547
vt 0.856274 0.342711
vt 0.943179 0.304285
vt 0.882472 0.396288
vt 0.950428 0.329906
vt 0.922711 0.435520
vt 0.965967 0.350971
vt 0.976857 0.460080
vt 0.987095 0.365684
vt 0.953318 0.554105
vt 0.867774 0.515381
vt 0.804340 0.453676
vt 0.763097 0.369617
vt 0.752886 0.281905
vt 0.773637 0.190625
vt 0.820950 0.115887
vt 0.894975 0.058166
vt 0.979319 0.030691
vt 0.133424 0.006483
vt 0.165109 0.006478
vt 0.165325 0.983763
vt 0.199989 0.006475
vt 0.200159 0.983760
vt 0.233694 0.006475
vt 0.233848 0.983758
vt 0.265348 0.006475
vt 0.265504 0.983759
vt 0.300185 0.006472
vt 0.300373 0.983757
vt 0.333846 0.006464
vt 0.334109 0.983752
vt 0.133704 0.983770
vt 0.082499 0.132777
vt 0.061618 0.097319
vt 0.083183 0.094128
vt 0.072255 0.052978
vt 0.050690 0.056172
vt 0.051369 0.017524
vt 0.339913 0.005918
vt 0.371481 0.006048
vt 0.367529 0.983328
vt 0.406295 0.006188
vt 0.402441 0.983467
vt 0.439914 0.006318
vt 0.436181 0.983598
vt 0.471496 0.006437
vt 0.467881 0.983718
vt 0.506279 0.006565
vt 0.502798 0.983845
vt 0.539952 0.006681
vt 0.536537 0.983963
vt 0.335850 0.983196
vt 0.048809 0.090991
vt 0.069680 0.126454
vt 0.048114 0.129640
vt 0.059033 0.170791
vt 0.080599 0.167606
vt 0.079900 0.206255
vt 0.578070 0.495733
vt 0.574801 0.984348
vt 0.543177 0.984179
vt 0.546428 0.495611
vt 0.612926 0.495863
vt 0.609604 0.984493
vt 0.646636 0.495994
vt 0.643239 0.984625
vt 0.678302 0.496117
vt 0.674835 0.984746
vt 0.713169 0.496254
vt 0.709638 0.984895
vt 0.746872 0.496375
vt 0.743301 0.985092
vt 0.546785 0.007055
vt 0.578461 0.007149
vt 0.613346 0.007273
vt 0.647039 0.007401
vt 0.678678 0.007525
vt 0.713536 0.007644
vt 0.747226 0.007701
vt 0.056720 0.194208
vt 0.077595 0.229669
vt 0.056029 0.232857
vt 0.066952 0.274008
vt 0.088517 0.270818
vt 0.087832 0.309467
# 101 texture coordinates

vn -1.000000 0.000000 0.000000
vn 0.604897 0.514821 -0.607503
vn 0.553578 0.773153 -0.309493
vn 0.772418 0.589628 -0.236028
vn 0.605565 -0.064516 -0.793176
vn 0.769323 0.251507 -0.587270
vn 0.604896 -0.607501 -0.514823
vn 0.772417 -0.236023 -0.589632
vn 0.605565 -0.793177 0.064515
vn 0.769323 -0.587270 -0.251509
vn 0.604898 -0.514822 0.607501
vn 0.772416 -0.589631 0.236027
vn 0.605566 0.064516 0.793176
vn 0.769322 -0.251509 0.587270
vn 0.604897 0.607499 0.514826
vn 0.772416 0.236024 0.589632
vn 0.610852 0.727805 0.311706
vn 0.769323 0.587266 0.251516
vn 0.422765 0.833054 0.356777
vn 0.449737 0.530937 0.718222
vn 0.448524 -0.133089 0.883806
vn 0.449736 -0.718224 0.530935
vn 0.448518 -0.883809 -0.133091
vn 0.449734 -0.530937 -0.718223
vn 0.448523 0.133089 -0.883807
vn 0.449731 0.718223 -0.530940
vn 0.426204 0.839838 -0.336188
vn 0.999809 -0.009764 0.016912
vn 0.986363 0.082293 -0.142536
vn 0.997372 0.036223 -0.062740
vn 0.904911 0.212801 -0.368582
vn 0.940015 0.170567 -0.295430
vn -0.901784 0.216094 -0.374286
vn 0.575356 0.408951 -0.708324
vn -0.986364 -0.082289 0.142529
vn -0.997373 -0.036220 0.062735
vn -0.904909 -0.212803 0.368585
vn -0.940016 -0.170565 0.295428
vn -0.862612 -0.252933 0.438093
vn -0.000009 -0.866031 -0.499990
vn 0.999809 0.019528 -0.000000
vn 0.986363 -0.164586 -0.000000
vn 0.997372 -0.072445 -0.000000
vn 0.904911 -0.425602 -0.000000
vn 0.940015 -0.341134 -0.000000
vn -0.901784 -0.432188 0.000000
vn 0.575355 -0.817904 -0.000000
vn -0.986364 0.164579 0.000000
vn -0.997373 0.072440 0.000000
vn -0.904908 0.425607 0.000000
vn -0.940015 0.341132 0.000000
vn -0.862612 0.505866 0.000000
vn 0.000000 0.000000 1.000000
vn 0.997372 0.036223 0.062740
vn 0.986363 0.082293 0.142536
vn 0.999809 -0.009764 -0.016912
vn 0.940015 0.170567 0.295431
vn 0.904911 0.212801 0.368582
vn 0.575357 0.408951 0.708324
vn -0.901784 0.216094 0.374286
vn -0.997373 -0.036220 -0.062735
vn -0.986364 -0.082289 -0.142529
vn -0.940016 -0.170565 -0.295428
vn -0.904909 -0.212803 -0.368585
vn -0.862614 -0.252932 -0.438090
vn -0.000007 0.866024 -0.500002
# 66 normals

g headusOBJexport
s 1
f 5/1/1 4/2/1 2/3/1
f 2/3/1 4/2/1 1/4/1
f 1/4/1 4/2/1 3/5/1
f 4/2/1 6/6/1 7/7/1
f 7/7/1 6/6/1 8/8/1
f 6/6/1 4/2/1 5/1/1
f 29/9/2 20/10/3 25/11/4
f 31/12/5 29/9/2 27/13/6
f 30/14/7 31/12/5 28/15/8
f 18/16/9 30/14/7 26/17/10
f 14/18/11 18/16/9 24/19/12
f 12/20/13 14/18/11 22/21/14
f 13/22/15 12/20/13 21/23/16
f 19/24/17 13/22/15 23/25/18
f 16/26/19 10/27/20 13/22/15
f 10/27/20 9/28/21 12/20/13
f 9/28/21 11/29/22 14/18/11
f 11/29/22 15/30/23 18/16/9
f 15/30/23 33/31/24 30/14/7
f 33/31/24 34/32/25 31/12/5
f 34/32/25 32/33/26 29/9/2
f 32/33/26 17/34/27 20/10/3
f 19/24/17 16/26/19 13/22/15
f 20/10/3 29/9/2 32/33/26
f 29/9/2 31/12/5 34/32/25
f 31/12/5 30/14/7 33/31/24
f 30/14/7 18/16/9 15/30/23
f 18/16/9 14/18/11 11/29/22
f 14/18/11 12/20/13 9/28/21
f 12/20/13 13/22/15 10/27/20
f 42/35/28 43/36/29 36/37/30
f 43/36/29 44/38/31 37/39/32
f 44/38/31 45/40/33 38/41/34
f 45/40/33 46/42/35 39/43/36
f 46/42/35 47/44/37 40/45/38
f 47/44/37 48/46/39 41/47/39
f 41/47/39 40/45/38 47/44/37
f 40/45/38 39/43/36 46/42/35
f 39/43/36 38/41/34 45/40/33
f 38/41/34 37/39/32 44/38/31
f 37/39/32 36/37/30 43/36/29
f 36/37/30 35/48/28 42/35/28
f 49/49/40 54/50/40 50/51/40
f 50/51/40 54/50/40 51/52/40
f 51/52/40 53/53/40 52/54/40
f 53/53/40 51/52/40 54/50/40
f 62/55/41 63/56/42 56/57/43
f 63/56/42 64/58/44 57/59/45
f 64/58/44 65/60/46 58/61/47
f 65/60/46 66/62/48 59/63/49
f 66/62/48 67/64/50 60/65/51
f 67/64/50 68/66/52 61/67/52
f 61/67/52 60/65/51 67/64/50
f 60/65/51 59/63/49 66/62/48
f 59/63/49 58/61/47 65/60/46
f 58/61/47 57/59/45 64/58/44
f 57/59/45 56/57/43 63/56/42
f 56/57/43 55/68/41 62/55/41
f 69/69/53 74/70/53 70/71/53
f 70/71/53 74/70/53 71/72/53
f 71/72/53 73/73/53 72/74/53
f 73/73/53 71/72/53 74/70/53
f 83/75/54 76/76/55 75/77/56
f 83/75/54 75/77/56 82/78/56
f 84/79/57 77/80/58 76/76/55
f 84/79/57 76/76/55 83/75/54
f 85/81/59 78/82/60 77/80/58
f 85/81/59 77/80/58 84/79/57
f 86/83/61 79/84/62 78/82/60
f 86/83/61 78/82/60 85/81/59
f 87/85/63 80/86/64 79/84/62
f 87/85/63 79/84/62 86/83/61
f 88/87/65 81/88/65 80/86/64
f 88/87/65 80/86/64 87/85/63
f 89/89/56 90/90/55 83/75/54
f 90/90/55 91/91/58 84/79/57
f 91/91/58 92/92/60 85/81/59
f 92/92/60 93/93/62 86/83/61
f 93/93/62 94/94/64 87/85/63
f 94/94/64 95/95/65 88/87/65
f 82/78/56 89/89/56 83/75/54
f 84/79/57 83/75/54 90/90/55
f 85/81/59 84/79/57 91/91/58
f 86/83/61 85/81/59 92/92/60
f 87/85/63 86/83/61 93/93/62
f 88/87/65 87/85/63 94/94/64
f 96/96/66 101/97/66 97/98/66
f 97/98/66 101/97/66 98/99/66
f 98/99/66 100/100/66 99/101/66
f 100/100/66 98/99/66 101/97/66
# 90 triangles in group

# 90 triangles total

