# Wavefront OBJ exported by MilkShape 3D

v 2.355947 71.927849 0.575033
v 2.355947 71.927849 0.575033
v 1.928612 71.927849 -3.875463
v 1.928612 71.927849 -3.875463
v 1.710108 73.544319 0.575033
v 1.626573 70.227852 0.575033
v 1.549363 71.927849 4.880328
v 1.549363 71.927849 4.880328
v 1.400420 73.249855 -3.875463
v 1.379820 71.927849 -8.456711
v 1.379820 71.927849 -8.456711
v 1.332098 70.537529 -3.875463
v 1.125584 72.988533 4.880328
v 1.070768 70.812370 4.880328
v 0.978646 72.896400 -8.456711
v 0.978646 70.959328 -8.456711
v 0.010107 73.297585 -8.456711
v 0.010105 70.558144 -8.456711
v 0.010107 73.846352 -3.875463
v 0.010106 70.009346 -3.875463
v 0.010107 74.273689 0.575033
v 0.010106 69.582024 0.575033
v 0.010108 73.467125 4.880328
v 0.010107 70.388603 4.880328
v -0.957343 72.897499 -8.456711
v -0.958436 70.959328 -8.456711
v -1.050565 73.043343 4.880328
v -1.105383 70.867180 4.880328
v -1.311895 73.318184 -3.875463
v -1.359623 71.930519 -8.456711
v -1.380224 70.605858 -3.875463
v -1.529158 71.927849 4.880328
v -1.606361 73.627861 0.575033
v -1.689905 70.311394 0.575033
v -1.908409 71.927849 -3.875463
v -2.335741 71.927849 0.575033
v 0.817791 69.967323 -0.481398
v 0.000003 69.967323 -0.953547
v 1.750084 2.069018 -1.002464
v 0.014889 2.069018 -2.021474
v 0.000003 69.967323 -0.953547
v -0.408894 69.967323 -0.717474
v -0.817786 69.967323 -0.481398
v 0.014889 2.069018 -2.021474
v -0.860154 2.069018 -1.524865
v -1.735198 2.069018 -1.028255
v -0.817786 69.967323 -0.481398
v -0.817785 69.967323 0.462902
v -1.735198 2.069018 -1.028255
v -1.750089 2.069018 0.983974
v -0.817785 69.967323 0.462902
v -0.408894 69.967323 0.698977
v 0.000003 69.967323 0.935053
v -1.750089 2.069018 0.983974
v -0.882490 2.069018 1.493479
v -0.014893 2.069018 2.002983
v 0.000003 69.967323 0.935053
v 0.408899 69.967323 0.698977
v 0.817792 69.967323 0.462902
v -0.014893 2.069018 2.002983
v 0.860150 2.069018 1.506373
v 1.735192 2.069018 1.009766
v 0.817792 69.967323 0.462902
v 0.817791 69.967323 -0.481398
v 1.735192 2.069018 1.009766
v 1.750084 2.069018 -1.002464
v -2.000004 2.069018 3.454855
v 1.999998 2.069018 3.454855
v -4.000004 2.069018 -0.009243
v -2.000004 2.069018 -3.473348
v 1.999997 2.069018 -3.473348
v 4.000001 2.069018 -0.009244
v 1.999997 0.015124 -3.473348
v 4.000001 0.015124 -0.009244
v -2.000004 0.015124 -3.473348
v -4.000004 0.015124 -0.009243
v -2.000004 0.015124 3.454855
v 1.999998 0.015124 3.454855
v 1.999998 0.015124 3.454855
v 4.000001 0.015124 -0.009244
v 1.999998 2.069018 3.454855
v 4.000001 2.069018 -0.009244
v 4.000001 0.015124 -0.009244
v 1.999997 0.015124 -3.473348
v 4.000001 2.069018 -0.009244
v 1.999997 2.069018 -3.473348
v 1.999997 0.015124 -3.473348
v -2.000004 0.015124 -3.473348
v 1.999997 2.069018 -3.473348
v -2.000004 2.069018 -3.473348
v -2.000004 0.015124 -3.473348
v -4.000004 0.015124 -0.009243
v -2.000004 2.069018 -3.473348
v -4.000004 2.069018 -0.009243
v -4.000004 0.015124 -0.009243
v -2.000004 0.015124 3.454855
v -4.000004 2.069018 -0.009243
v -2.000004 2.069018 3.454855
v -2.000004 0.015124 3.454855
v 1.999998 0.015124 3.454855
v -2.000004 2.069018 3.454855
v 1.999998 2.069018 3.454855
v 1.379820 71.927849 -8.456711
v 0.978646 72.896400 -8.456711
v 0.978646 70.959328 -8.456711
v 0.921449 71.930519 -10.468405
v 0.855500 72.272743 -10.468405
v 0.847082 71.567955 -10.468405
v 0.667089 72.565941 -10.468405
v 0.635995 71.263985 -10.468405
v 0.461006 71.930519 -11.745260
v 0.428027 72.101631 -11.745260
v 0.423821 71.749245 -11.745260
v 0.363107 72.777031 -10.468405
v 0.342788 71.075569 -10.468405
v 0.333827 72.248238 -11.745260
v 0.318278 71.597252 -11.745260
v 0.181836 72.353767 -11.745260
v 0.171675 71.503029 -11.745260
v 0.010107 73.297585 -8.456711
v 0.010105 70.558144 -8.456711
v 0.000563 71.930519 -12.170879
v 0.000563 71.930519 -12.170879
v 0.000563 71.930519 -12.170879
v 0.000563 71.930519 -12.170879
v 0.000563 71.930519 -12.170879
v 0.000563 71.930519 -12.170879
v 0.000563 71.930519 -12.170879
v 0.000563 71.930519 -12.170879
v 0.000563 71.930519 -12.170879
v 0.000563 71.930519 -12.170879
v 0.000563 71.930519 -12.170879
v 0.000563 71.930519 -12.170879
v 0.000563 71.930519 -12.170879
v 0.000563 71.930519 -12.170879
v 0.000563 71.930519 -12.170879
v 0.000563 71.930519 -12.170879
v 0.000563 72.390953 -11.745260
v 0.000563 71.470070 -11.745260
v 0.000563 72.851402 -10.468405
v 0.000562 71.009621 -10.468405
v -0.170550 72.357979 -11.745260
v -0.180708 71.507256 -11.745260
v -0.317154 72.263771 -11.745260
v -0.332698 71.612785 -11.745260
v -0.341665 72.785439 -10.468405
v -0.361976 71.083992 -10.468405
v -0.422698 72.111778 -11.745260
v -0.426908 71.759407 -11.745260
v -0.459882 71.930519 -11.745260
v -0.459882 71.930519 -11.745260
v -0.634872 72.597023 -10.468405
v -0.665965 71.295082 -10.468405
v -0.845963 72.293053 -10.468405
v -0.854374 71.588280 -10.468405
v -0.920327 71.930519 -10.468405
v -0.920327 71.930519 -10.468405
v -0.957343 72.897499 -8.456711
v -0.958436 70.959328 -8.456711
v -1.359623 71.930519 -8.456711
v -1.359623 71.930519 -8.456711
# 161 vertices

vt 0.187977 0.138708
vt 0.055969 0.199081
vt 0.040429 0.162366
vt 0.170557 0.086188
vt 0.203891 0.192665
vt 0.069010 0.243669
vt 0.218226 0.241612
vt 0.081894 0.288712
vt 0.234180 0.293066
vt 0.096765 0.336970
vt 0.249939 0.340743
vt 0.111984 0.382687
vt 0.267859 0.392322
vt 0.128398 0.429183
vt 0.285271 0.441896
vt 0.143262 0.470910
vt 0.302971 0.498000
vt 0.152701 0.512288
vt 0.333229 0.107092
vt 0.324475 0.060518
vt 0.346018 0.155761
vt 0.359312 0.200704
vt 0.374050 0.247941
vt 0.388485 0.292107
vt 0.404726 0.339029
vt 0.421305 0.383084
vt 0.442932 0.428260
vt 0.480724 0.050827
vt 0.487123 0.086841
vt 0.497026 0.124772
vt 0.508341 0.164066
vt 0.520334 0.203878
vt 0.532563 0.243370
vt 0.544858 0.281241
vt 0.558044 0.316305
vt 0.574204 0.347484
vt 0.647238 0.970087
vt 0.661579 0.134879
vt 0.673206 0.134990
vt 0.671979 0.970321
vt 0.706254 0.134556
vt 0.706102 0.969888
vt 0.693743 0.969787
vt 0.681384 0.969687
vt 0.694602 0.134460
vt 0.700427 0.134507
vt 0.732970 0.134406
vt 0.737497 0.969726
vt 0.712757 0.969663
vt 0.721342 0.134375
vt 0.768565 0.134237
vt 0.766963 0.969568
vt 0.754604 0.969446
vt 0.742245 0.969324
vt 0.756914 0.134121
vt 0.762739 0.134179
vt 0.599163 0.133645
vt 0.606300 0.968948
vt 0.593941 0.968955
vt 0.581581 0.968962
vt 0.587511 0.133651
vt 0.593336 0.133649
vt 0.632399 0.134514
vt 0.636927 0.969835
vt 0.612185 0.969772
vt 0.620771 0.134484
vt 0.261407 0.594492
vt 0.261422 0.726904
vt 0.146736 0.528305
vt 0.032065 0.594492
vt 0.032051 0.726904
vt 0.146737 0.793117
vt 0.500014 0.724636
vt 0.386681 0.790049
vt 0.500029 0.593771
vt 0.386682 0.528331
vt 0.273336 0.593770
vt 0.273349 0.724635
vt 0.814776 0.393933
vt 0.945630 0.326726
vt 0.945637 0.393919
vt 0.814768 0.326739
vt 0.814776 0.461127
vt 0.945637 0.461113
vt 0.814776 0.528321
vt 0.945637 0.528307
vt 0.945630 0.125144
vt 0.814776 0.192351
vt 0.814768 0.125157
vt 0.945637 0.192338
vt 0.814776 0.259545
vt 0.945637 0.259532
vt 0.091650 0.873137
vt 0.082602 0.866581
vt 0.112597 0.833109
vt 0.117553 0.836459
vt 0.074109 0.858930
vt 0.108318 0.829148
vt 0.124348 0.815979
vt 0.126519 0.817709
vt 0.112495 0.883734
vt 0.101885 0.878981
vt 0.123247 0.839528
vt 0.129298 0.842074
vt 0.130087 0.819892
vt 0.134189 0.821859
vt 0.133392 0.889495
vt 0.122837 0.887097
vt 0.135285 0.843947
vt 0.141460 0.845279
vt 0.138380 0.823377
vt 0.142677 0.824512
vt 0.156347 0.891092
vt 0.144836 0.890864
vt 0.148116 0.846057
vt 0.154831 0.846166
vt 0.147150 0.825273
vt 0.151803 0.825583
vt 0.177751 0.888299
vt 0.167109 0.890187
vt 0.161168 0.845653
vt 0.167420 0.844559
vt 0.156346 0.825419
vt 0.160777 0.824853
vt 0.199596 0.880845
vt 0.188832 0.885115
vt 0.173857 0.842781
vt 0.180048 0.840396
vt 0.165200 0.823873
vt 0.169610 0.822416
vt 0.218533 0.869788
vt 0.209249 0.875781
vt 0.185616 0.837639
vt 0.190846 0.834452
vt 0.173755 0.820573
vt 0.177597 0.818454
vt 0.236244 0.853651
vt 0.227741 0.862309
vt 0.195898 0.830598
vt 0.200174 0.826117
vt 0.180977 0.816161
vt 0.183240 0.814129
vt 0.284411 0.902752
vt 0.257821 0.925427
vt 0.227322 0.943138
vt 0.193769 0.954663
vt 0.158562 0.959369
vt 0.123118 0.957023
vt 0.088887 0.947734
vt 0.057285 0.932000
vt 0.029221 0.911012
# 151 texture coordinates

vn 0.714676 0.698001 0.045087
vn 0.603429 0.776335 0.182146
vn 0.914883 0.365528 0.171400
vn 0.928623 0.371019 -0.002092
vn 0.011875 0.998934 0.044604
vn -0.122141 0.975541 0.182761
vn -0.698000 0.714677 0.045087
vn -0.776336 0.603427 0.182148
vn -0.998934 0.011870 0.044607
vn -0.975540 -0.122144 0.182764
vn -0.714675 -0.698002 0.045088
vn -0.603424 -0.776339 0.182147
vn -0.011870 -0.998934 0.044607
vn 0.122143 -0.975540 0.182764
vn 0.697998 -0.714679 0.045088
vn 0.776333 -0.603431 0.182149
vn 0.915705 -0.392880 0.084442
vn 0.905661 -0.388573 0.169673
vn 0.798816 0.592079 -0.106469
vn 0.923998 0.369172 -0.099692
vn 0.146292 0.983587 -0.105619
vn -0.591994 0.798879 -0.106467
vn -0.983546 0.146554 -0.105635
vn -0.798910 -0.591945 -0.106506
vn -0.146289 -0.983587 -0.105621
vn 0.592077 -0.798817 -0.106470
vn 0.915783 -0.389508 -0.098105
vn 0.920424 0.374474 -0.112200
vn 0.602898 0.789065 -0.117858
vn -0.131270 0.984153 -0.119213
vn -0.788651 0.603462 -0.117744
vn -0.984228 -0.130666 -0.119257
vn -0.603130 -0.788886 -0.117870
vn 0.131466 -0.984119 -0.119277
vn 0.789066 -0.602896 -0.117862
vn 0.918273 -0.380361 -0.110001
vn 0.503154 0.013650 -0.864089
vn 0.499953 0.013729 -0.865944
vn 0.506348 0.013569 -0.862222
vn -0.496744 0.013595 -0.867791
vn -0.493533 0.013569 -0.869621
vn -0.495674 0.013603 -0.868402
vn -0.499958 0.013730 -0.865941
vn -0.497815 0.013657 -0.867175
vn -0.999900 0.013650 -0.003699
vn -0.999881 0.013570 -0.007399
vn -0.999906 0.013730 0.000001
vn -0.503156 0.013595 0.864089
vn -0.506347 0.013570 0.862223
vn -0.504220 0.013604 0.863468
vn -0.499951 0.013730 0.865945
vn -0.502088 0.013657 0.864709
vn 0.496746 0.013595 0.867790
vn 0.493533 0.013569 0.869621
vn 0.495675 0.013603 0.868401
vn 0.499955 0.013730 0.865943
vn 0.497816 0.013657 0.867175
vn 0.999900 0.013650 0.003700
vn 0.999881 0.013569 0.007400
vn 0.999906 0.013729 -0.000001
vn 0.000000 1.000000 0.000000
vn 0.000000 -1.000000 0.000000
vn 0.866025 0.000000 0.500001
vn 0.866025 0.000000 -0.500000
vn 0.000000 0.000000 -1.000000
vn -0.866026 0.000000 -0.500000
vn -0.866025 0.000000 0.500000
vn 0.000000 0.000000 1.000000
vn -0.714230 -0.636935 -0.290152
vn -0.904494 -0.331503 -0.268322
vn -0.783110 -0.353467 -0.511664
vn -0.591070 -0.623603 -0.511620
vn -0.944831 -0.182079 -0.272290
vn -0.862954 -0.166299 -0.477133
vn -0.673057 -0.129704 -0.728129
vn -0.576661 -0.370524 -0.728131
vn -0.043238 -0.955617 -0.291422
vn -0.406492 -0.872585 -0.270850
vn -0.301549 -0.804496 -0.511718
vn 0.033110 -0.858496 -0.511750
vn -0.391414 -0.563738 -0.727320
vn -0.137915 -0.672301 -0.727318
vn 0.636438 -0.713675 -0.292601
vn 0.331304 -0.903590 -0.271594
vn 0.353476 -0.783101 -0.511671
vn 0.623617 -0.591057 -0.511619
vn 0.129642 -0.673059 -0.728138
vn 0.370592 -0.576611 -0.728136
vn 0.955235 -0.043200 -0.292677
vn 0.871926 -0.406199 -0.273401
vn 0.804492 -0.301557 -0.511718
vn 0.858494 0.033152 -0.511750
vn 0.563722 -0.391446 -0.727315
vn 0.672306 -0.137910 -0.727314
vn 0.713812 0.636574 -0.291969
vn 0.903468 0.331293 -0.272012
vn 0.783107 0.353476 -0.511661
vn 0.591072 0.623604 -0.511617
vn 0.673056 0.129720 -0.728126
vn 0.576663 0.370527 -0.728127
vn 0.043195 0.955904 -0.290487
vn 0.406402 0.872443 -0.271440
vn 0.301548 0.804499 -0.511713
vn -0.033149 0.858497 -0.511746
vn 0.391418 0.563745 -0.727312
vn 0.137915 0.672313 -0.727307
vn -0.637083 0.714354 -0.289524
vn -0.331537 0.904319 -0.268868
vn -0.353482 0.783107 -0.511658
vn -0.623600 0.591080 -0.511612
vn -0.129703 0.673065 -0.728121
vn -0.370556 0.576652 -0.728121
vn -0.936814 0.192168 -0.292322
vn -0.872971 0.406942 -0.268923
vn -0.804491 0.301565 -0.511716
vn -0.821014 0.168424 -0.545499
vn -0.563725 0.391452 -0.727310
vn -0.672304 0.137917 -0.727314
vn -0.938752 0.289048 -0.187608
vn -0.686540 0.700011 -0.196590
vn 0.003059 0.979916 -0.199390
vn 0.698725 0.686025 -0.202860
vn 0.978749 -0.002980 -0.205040
vn 0.685698 -0.698555 -0.204547
vn -0.003088 -0.979420 -0.201809
vn -0.699670 -0.686429 -0.198185
vn -0.940692 -0.282248 -0.188243
# 127 normals

g headusOBJexport
s 1
f 5/1/1 13/2/2 7/3/3
f 5/1/1 7/3/3 1/4/4
f 21/5/5 23/6/6 13/2/2
f 21/5/5 13/2/2 5/1/1
f 33/7/7 27/8/8 23/6/6
f 33/7/7 23/6/6 21/5/5
f 36/9/9 32/10/10 27/8/8
f 36/9/9 27/8/8 33/7/7
f 34/11/11 28/12/12 32/10/10
f 34/11/11 32/10/10 36/9/9
f 22/13/13 24/14/14 28/12/12
f 22/13/13 28/12/12 34/11/11
f 6/15/15 14/16/16 24/14/14
f 6/15/15 24/14/14 22/13/13
f 2/17/17 8/18/18 14/16/16
f 2/17/17 14/16/16 6/15/15
f 9/19/19 5/1/1 1/4/4
f 9/19/19 1/4/4 3/20/20
f 19/21/21 21/5/5 5/1/1
f 19/21/21 5/1/1 9/19/19
f 29/22/22 33/7/7 21/5/5
f 29/22/22 21/5/5 19/21/21
f 35/23/23 36/9/9 33/7/7
f 35/23/23 33/7/7 29/22/22
f 31/24/24 34/11/11 36/9/9
f 31/24/24 36/9/9 35/23/23
f 20/25/25 22/13/13 34/11/11
f 20/25/25 34/11/11 31/24/24
f 12/26/26 6/15/15 22/13/13
f 12/26/26 22/13/13 20/25/25
f 4/27/27 2/17/17 6/15/15
f 4/27/27 6/15/15 12/26/26
f 10/28/28 15/29/29 9/19/19
f 15/29/29 17/30/30 19/21/21
f 17/30/30 25/31/31 29/22/22
f 25/31/31 30/32/32 35/23/23
f 30/32/32 26/33/33 31/24/24
f 26/33/33 18/34/34 20/25/25
f 18/34/34 16/35/35 12/26/26
f 16/35/35 11/36/36 4/27/27
f 3/20/20 10/28/28 9/19/19
f 19/21/21 9/19/19 15/29/29
f 29/22/22 19/21/21 17/30/30
f 35/23/23 29/22/22 25/31/31
f 31/24/24 35/23/23 30/32/32
f 20/25/25 31/24/24 26/33/33
f 12/26/26 20/25/25 18/34/34
f 4/27/27 12/26/26 16/35/35
f 40/37/37 38/38/38 37/39/37
f 37/39/37 39/40/39 40/37/37
f 41/41/40 44/42/41 45/43/42
f 46/44/40 43/45/43 42/46/44
f 42/46/44 41/41/40 45/43/42
f 45/43/42 46/44/40 42/46/44
f 47/47/45 49/48/46 50/49/45
f 50/49/45 48/50/47 47/47/45
f 51/51/48 54/52/49 55/53/50
f 56/54/48 53/55/51 52/56/52
f 52/56/52 51/51/48 55/53/50
f 55/53/50 56/54/48 52/56/52
f 57/57/53 60/58/54 61/59/55
f 62/60/53 59/61/56 58/62/57
f 58/62/57 57/57/53 61/59/55
f 61/59/55 62/60/53 58/62/57
f 63/63/58 65/64/59 66/65/58
f 66/65/58 64/66/60 63/63/58
f 67/67/61 68/68/61 69/69/61
f 70/70/61 69/69/61 71/71/61
f 72/72/61 71/71/61 69/69/61
f 68/68/61 72/72/61 69/69/61
f 73/73/62 74/74/62 75/75/62
f 76/76/62 75/75/62 74/74/62
f 77/77/62 76/76/62 74/74/62
f 78/78/62 77/77/62 74/74/62
f 81/79/63 80/80/63 82/81/63
f 80/80/63 81/79/63 79/82/63
f 85/81/64 84/83/64 86/79/64
f 84/83/64 85/81/64 83/84/64
f 89/84/65 88/85/65 90/83/65
f 88/85/65 89/84/65 87/86/65
f 93/87/66 92/88/66 94/89/66
f 92/88/66 93/87/66 91/90/66
f 97/91/67 96/90/67 98/92/67
f 96/90/67 97/91/67 95/88/67
f 101/82/68 100/92/68 102/80/68
f 100/92/68 101/82/68 99/91/68
f 153/93/69 155/94/70 149/95/71
f 153/93/69 149/95/71 145/96/72
f 155/94/70 157/97/73 151/98/74
f 155/94/70 151/98/74 149/95/71
f 149/95/71 151/98/74 137/99/75
f 145/96/72 149/95/71 135/100/76
f 141/101/77 147/102/78 143/103/79
f 141/101/77 143/103/79 139/104/80
f 147/102/78 153/93/69 145/96/72
f 147/102/78 145/96/72 143/103/79
f 143/103/79 145/96/72 133/105/81
f 139/104/80 143/103/79 131/106/82
f 110/107/83 115/108/84 119/109/85
f 110/107/83 119/109/85 117/110/86
f 115/108/84 141/101/77 139/104/80
f 115/108/84 139/104/80 119/109/85
f 119/109/85 139/104/80 129/111/87
f 117/110/86 119/109/85 127/112/88
f 106/113/89 108/114/90 113/115/91
f 106/113/89 113/115/91 111/116/92
f 108/114/90 110/107/83 117/110/86
f 108/114/90 117/110/86 113/115/91
f 113/115/91 117/110/86 125/117/93
f 111/116/92 113/115/91 123/118/94
f 109/119/95 107/120/96 112/121/97
f 109/119/95 112/121/97 116/122/98
f 107/120/96 106/113/89 111/116/92
f 107/120/96 111/116/92 112/121/97
f 112/121/97 111/116/92 122/123/99
f 116/122/98 112/121/97 124/124/100
f 140/125/101 114/126/102 118/127/103
f 140/125/101 118/127/103 138/128/104
f 114/126/102 109/119/95 116/122/98
f 114/126/102 116/122/98 118/127/103
f 118/127/103 116/122/98 126/129/105
f 138/128/104 118/127/103 128/130/106
f 152/131/107 146/132/108 142/133/109
f 152/131/107 142/133/109 144/134/110
f 146/132/108 140/125/101 138/128/104
f 146/132/108 138/128/104 142/133/109
f 142/133/109 138/128/104 130/135/111
f 144/134/110 142/133/109 132/136/112
f 156/137/113 154/138/114 148/139/115
f 156/137/113 148/139/115 150/140/116
f 154/138/114 152/131/107 144/134/110
f 154/138/114 144/134/110 148/139/115
f 148/139/115 144/134/110 134/141/117
f 150/140/116 148/139/115 136/142/118
f 160/143/119 158/144/120 154/138/114
f 158/144/120 120/145/121 146/132/108
f 120/145/121 104/146/122 114/126/102
f 104/146/122 103/147/123 107/120/96
f 103/147/123 105/148/124 108/114/90
f 105/148/124 121/149/125 115/108/84
f 121/149/125 159/150/126 147/102/78
f 159/150/126 161/151/127 155/94/70
f 161/151/127 157/97/73 155/94/70
f 156/137/113 160/143/119 154/138/114
f 155/94/70 153/93/69 159/150/126
f 147/102/78 141/101/77 121/149/125
f 153/93/69 147/102/78 159/150/126
f 115/108/84 110/107/83 105/148/124
f 141/101/77 115/108/84 121/149/125
f 108/114/90 106/113/89 103/147/123
f 110/107/83 108/114/90 105/148/124
f 107/120/96 109/119/95 104/146/122
f 106/113/89 107/120/96 103/147/123
f 114/126/102 140/125/101 120/145/121
f 109/119/95 114/126/102 104/146/122
f 146/132/108 152/131/107 158/144/120
f 140/125/101 146/132/108 120/145/121
f 152/131/107 154/138/114 158/144/120
# 158 triangles in group

# 158 triangles total

